STARTFONT 2.1
FONT -FontForge-Satisfy-Book-R-Normal--20-200-72-72-P-86-ISO10646-1
SIZE 20 72 72
FONTBOUNDINGBOX 23 29 -4 -10
COMMENT "Generated by fontforge, http://fontforge.sourceforge.net"
COMMENT "Copyright (c) 2011 by Font Diner, Inc. All rights reserved."
STARTPROPERTIES 39
FOUNDRY "FontForge"
FAMILY_NAME "Satisfy"
WEIGHT_NAME "Book"
SLANT "R"
SETWIDTH_NAME "Normal"
ADD_STYLE_NAME ""
PIXEL_SIZE 20
POINT_SIZE 200
RESOLUTION_X 72
RESOLUTION_Y 72
SPACING "P"
AVERAGE_WIDTH 86
CHARSET_REGISTRY "ISO10646"
CHARSET_ENCODING "1"
FONTNAME_REGISTRY ""
CHARSET_COLLECTIONS "ISO10646-1"
FONT_NAME "Satisfy-Regular"
FACE_NAME "Satisfy Regular"
COPYRIGHT "Copyright (c) 2011 by Font Diner, Inc. All rights reserved."
FONT_VERSION "1.001"
FONT_ASCENT 16
FONT_DESCENT 4
UNDERLINE_POSITION -2
UNDERLINE_THICKNESS 1
X_HEIGHT 7
CAP_HEIGHT 14
RAW_ASCENT 799
RAW_DESCENT 200
NORM_SPACE 6
RELATIVE_WEIGHT 40
RELATIVE_SETWIDTH 50
SUPERSCRIPT_X 0
SUPERSCRIPT_Y 9
SUPERSCRIPT_SIZE 13
SUBSCRIPT_X 0
SUBSCRIPT_Y 2
SUBSCRIPT_SIZE 13
AVG_LOWERCASE_WIDTH 81
AVG_UPPERCASE_WIDTH 112
ENDPROPERTIES
CHARS 227
STARTCHAR space
ENCODING 32
SWIDTH 280 0
DWIDTH 6 0
BBX 1 1 0 0
BITMAP
00
ENDCHAR
STARTCHAR exclam
ENCODING 33
SWIDTH 249 0
DWIDTH 5 0
BBX 5 15 0 0
BITMAP
08
18
18
18
30
30
30
20
20
60
60
40
00
40
C0
ENDCHAR
STARTCHAR quotedbl
ENCODING 34
SWIDTH 249 0
DWIDTH 5 0
BBX 5 6 1 9
BITMAP
28
48
58
D8
D0
90
ENDCHAR
STARTCHAR numbersign
ENCODING 35
SWIDTH 417 0
DWIDTH 8 0
BBX 9 11 0 2
BITMAP
0900
0B00
1200
7F80
F200
2400
7F00
FF00
6C00
4800
4800
ENDCHAR
STARTCHAR dollar
ENCODING 36
SWIDTH 292 0
DWIDTH 6 0
BBX 8 15 -1 0
BITMAP
04
04
0E
12
33
32
34
10
18
08
4C
CC
48
30
20
ENDCHAR
STARTCHAR percent
ENCODING 37
SWIDTH 574 0
DWIDTH 11 0
BBX 12 15 0 0
BITMAP
1030
3C60
6440
4480
4D80
4900
7A00
0600
0C80
0940
1A60
3260
2640
6240
C380
ENDCHAR
STARTCHAR ampersand
ENCODING 38
SWIDTH 460 0
DWIDTH 9 0
BBX 10 16 -1 -1
BITMAP
0180
0680
0480
0D80
0F00
0E00
0C00
1C00
3C00
6C00
4C00
C640
C680
C700
7F00
0300
ENDCHAR
STARTCHAR quotesingle
ENCODING 39
SWIDTH 113 0
DWIDTH 2 0
BBX 3 6 1 9
BITMAP
20
40
40
C0
C0
80
ENDCHAR
STARTCHAR parenleft
ENCODING 40
SWIDTH 234 0
DWIDTH 5 0
BBX 6 19 0 -2
BITMAP
04
04
08
18
10
30
20
20
60
60
40
40
40
C0
C0
C0
40
40
40
ENDCHAR
STARTCHAR parenright
ENCODING 41
SWIDTH 204 0
DWIDTH 4 0
BBX 6 19 -2 -2
BITMAP
08
08
0C
0C
0C
0C
0C
0C
0C
08
08
18
18
10
30
20
60
40
80
ENDCHAR
STARTCHAR asterisk
ENCODING 42
SWIDTH 327 0
DWIDTH 7 0
BBX 7 6 1 8
BITMAP
18
D2
7E
30
F8
4C
ENDCHAR
STARTCHAR plus
ENCODING 43
SWIDTH 350 0
DWIDTH 7 0
BBX 7 7 0 4
BITMAP
08
18
10
FE
90
30
30
ENDCHAR
STARTCHAR comma
ENCODING 44
SWIDTH 200 0
DWIDTH 4 0
BBX 3 3 -1 -2
BITMAP
E0
60
40
ENDCHAR
STARTCHAR hyphen
ENCODING 45
SWIDTH 353 0
DWIDTH 7 0
BBX 7 2 0 5
BITMAP
FE
80
ENDCHAR
STARTCHAR period
ENCODING 46
SWIDTH 213 0
DWIDTH 4 0
BBX 3 2 -1 0
BITMAP
20
E0
ENDCHAR
STARTCHAR slash
ENCODING 47
SWIDTH 262 0
DWIDTH 5 0
BBX 10 15 -2 0
BITMAP
0040
0080
0100
0300
0200
0600
0400
0C00
0800
1800
1000
2000
6000
6000
C000
ENDCHAR
STARTCHAR zero
ENCODING 48
SWIDTH 489 0
DWIDTH 10 0
BBX 8 15 1 0
BITMAP
0C
1E
33
23
63
43
C3
C3
C3
82
86
86
8C
C8
78
ENDCHAR
STARTCHAR one
ENCODING 49
SWIDTH 272 0
DWIDTH 5 0
BBX 5 15 0 0
BITMAP
08
18
38
18
10
10
30
30
20
20
60
60
40
40
C0
ENDCHAR
STARTCHAR two
ENCODING 50
SWIDTH 448 0
DWIDTH 9 0
BBX 10 16 -1 -1
BITMAP
0380
0C80
18C0
10C0
1880
0180
0100
0300
0600
0C00
1800
3000
6000
DF00
7F00
0100
ENDCHAR
STARTCHAR three
ENCODING 51
SWIDTH 462 0
DWIDTH 9 0
BBX 9 16 0 -1
BITMAP
0E00
1900
3180
2180
3180
0300
0600
0C00
1E00
0300
0300
0300
C600
C600
7C00
1000
ENDCHAR
STARTCHAR four
ENCODING 52
SWIDTH 452 0
DWIDTH 9 0
BBX 9 15 0 0
BITMAP
0080
0300
0700
0D00
1B00
3200
6200
C200
FF00
4700
0400
0400
0C00
0C00
0C00
ENDCHAR
STARTCHAR five
ENCODING 53
SWIDTH 444 0
DWIDTH 9 0
BBX 9 16 0 -1
BITMAP
0100
1F80
1180
3000
2000
2000
6E00
7E00
6300
0200
0200
4200
C400
EC00
F800
2000
ENDCHAR
STARTCHAR six
ENCODING 54
SWIDTH 477 0
DWIDTH 10 0
BBX 8 15 1 0
BITMAP
06
1B
13
22
64
60
DE
E2
E2
C2
86
86
C4
CC
78
ENDCHAR
STARTCHAR seven
ENCODING 55
SWIDTH 406 0
DWIDTH 8 0
BBX 8 15 1 0
BITMAP
0E
7F
43
02
04
0C
08
18
30
30
60
60
C0
C0
C0
ENDCHAR
STARTCHAR eight
ENCODING 56
SWIDTH 444 0
DWIDTH 9 0
BBX 9 15 0 0
BITMAP
0600
0980
1080
1180
3100
1A00
1C00
1C00
3C00
6600
C600
C600
8600
8400
FC00
ENDCHAR
STARTCHAR nine
ENCODING 57
SWIDTH 462 0
DWIDTH 9 0
BBX 9 15 0 0
BITMAP
0600
1900
1100
3180
2180
6180
6380
6300
6700
3F00
1300
0600
4400
CC00
7800
ENDCHAR
STARTCHAR colon
ENCODING 58
SWIDTH 226 0
DWIDTH 5 0
BBX 4 6 -1 0
BITMAP
30
70
00
00
20
E0
ENDCHAR
STARTCHAR semicolon
ENCODING 59
SWIDTH 212 0
DWIDTH 4 0
BBX 4 8 -1 -2
BITMAP
20
70
00
00
00
E0
60
40
ENDCHAR
STARTCHAR less
ENCODING 60
SWIDTH 271 0
DWIDTH 5 0
BBX 6 8 0 2
BITMAP
1C
30
60
C0
C0
60
60
30
ENDCHAR
STARTCHAR equal
ENCODING 61
SWIDTH 374 0
DWIDTH 7 0
BBX 7 4 0 5
BITMAP
7E
7E
00
FE
ENDCHAR
STARTCHAR greater
ENCODING 62
SWIDTH 250 0
DWIDTH 5 0
BBX 6 8 -1 2
BITMAP
30
18
18
0C
18
30
60
C0
ENDCHAR
STARTCHAR question
ENCODING 63
SWIDTH 413 0
DWIDTH 8 0
BBX 9 16 0 -1
BITMAP
0E00
3980
6080
6080
0180
0100
0300
0E00
3800
6000
6000
6000
4000
0000
E000
8000
ENDCHAR
STARTCHAR at
ENCODING 64
SWIDTH 648 0
DWIDTH 13 0
BBX 14 13 -1 0
BITMAP
03C0
0C30
1818
33E8
66E8
4CCC
484C
48C8
D888
5B98
6F90
21E0
1CC0
ENDCHAR
STARTCHAR A
ENCODING 65
SWIDTH 552 0
DWIDTH 11 0
BBX 12 20 -2 -5
BITMAP
0060
00F0
0110
0330
0230
0620
0420
0C20
0C60
0860
1F60
7FF0
9040
30C0
30C0
70C0
60C0
60C0
80E0
0080
ENDCHAR
STARTCHAR B
ENCODING 66
SWIDTH 607 0
DWIDTH 12 0
BBX 12 19 0 -4
BITMAP
0780
1CE0
3C60
2830
1870
1860
1060
10C0
3580
3F80
28C0
60C0
60C0
60C0
60C0
C1C0
C380
CF00
7800
ENDCHAR
STARTCHAR C
ENCODING 67
SWIDTH 548 0
DWIDTH 11 0
BBX 11 19 0 -4
BITMAP
0180
0660
0C60
1860
3060
30E0
60C0
6000
6000
E000
C000
C000
C000
C000
C080
C180
6300
3E00
1800
ENDCHAR
STARTCHAR D
ENCODING 68
SWIDTH 632 0
DWIDTH 13 0
BBX 12 19 0 -4
BITMAP
0E00
3FC0
30E0
0860
1830
1830
1830
1830
1030
3030
3060
3060
2060
60C0
6180
6180
C700
FC00
3000
ENDCHAR
STARTCHAR E
ENCODING 69
SWIDTH 523 0
DWIDTH 10 0
BBX 12 19 -1 -4
BITMAP
01C0
0720
0C30
1830
1820
18E0
3800
1800
1C00
0F00
1800
6000
6000
6040
E040
E080
6180
3F00
0C00
ENDCHAR
STARTCHAR F
ENCODING 70
SWIDTH 585 0
DWIDTH 12 0
BBX 11 19 1 -4
BITMAP
0F80
7CC0
C060
C040
F0C0
6080
0180
0100
7FC0
7380
0600
0600
0C00
0C00
0C00
1800
1800
1800
1000
ENDCHAR
STARTCHAR G
ENCODING 71
SWIDTH 612 0
DWIDTH 12 0
BBX 11 19 0 -4
BITMAP
01C0
0760
0C60
0C60
1860
3060
30C0
7000
6000
6000
67E0
E440
C0C0
C0C0
C080
4180
6300
3600
1C00
ENDCHAR
STARTCHAR H
ENCODING 72
SWIDTH 649 0
DWIDTH 13 0
BBX 13 19 0 -4
BITMAP
0400
0C18
0818
1830
1830
1830
1020
3060
3060
3FF0
6460
62C0
61C0
6180
6180
C180
C180
C180
8000
ENDCHAR
STARTCHAR I
ENCODING 73
SWIDTH 537 0
DWIDTH 11 0
BBX 13 19 -2 -4
BITMAP
0020
00F0
01B0
0330
0330
0320
0320
0360
0360
0160
00C0
0FF8
38C0
6080
E180
6100
6300
3600
0C00
ENDCHAR
STARTCHAR J
ENCODING 74
SWIDTH 500 0
DWIDTH 10 0
BBX 14 19 -2 -4
BITMAP
00F0
03FC
0020
0060
0060
0060
0040
00C0
00C0
08C0
18C0
3980
6180
6180
4300
C300
C600
4400
3800
ENDCHAR
STARTCHAR K
ENCODING 75
SWIDTH 497 0
DWIDTH 10 0
BBX 12 20 -1 -5
BITMAP
0610
0C30
0C30
0860
1860
18C0
18C0
1180
3300
3C00
7F00
2380
6180
6100
6300
6300
C200
E600
8200
03E0
ENDCHAR
STARTCHAR L
ENCODING 76
SWIDTH 492 0
DWIDTH 10 0
BBX 13 19 -2 -4
BITMAP
0030
0078
00D8
0090
01B0
01E0
01C0
1F80
0300
0300
0300
0200
0600
0600
0400
7C00
DC20
F7E0
01C0
ENDCHAR
STARTCHAR M
ENCODING 77
SWIDTH 733 0
DWIDTH 15 0
BBX 16 19 -2 -4
BITMAP
0081
0183
0187
0385
028F
068B
069A
0692
0496
0DB6
2DA6
4DE4
49C4
D9CC
98CC
988C
F00C
F00C
6007
ENDCHAR
STARTCHAR N
ENCODING 78
SWIDTH 541 0
DWIDTH 11 0
BBX 14 19 -1 -4
BITMAP
0018
0C3C
1C24
1C68
1468
1450
34E0
34C0
24C0
24C0
64C0
6480
6480
6780
4780
C780
C300
E300
4200
ENDCHAR
STARTCHAR O
ENCODING 79
SWIDTH 567 0
DWIDTH 11 0
BBX 10 19 0 -4
BITMAP
0780
0FC0
1AC0
18C0
3040
3040
6040
6040
60C0
40C0
C0C0
C0C0
C080
C180
C180
C300
4200
6C00
3800
ENDCHAR
STARTCHAR P
ENCODING 80
SWIDTH 552 0
DWIDTH 11 0
BBX 12 18 -1 -3
BITMAP
03C0
0C60
3C30
2C30
0C30
0830
0830
1860
1860
18C0
1300
3C00
3000
3000
3000
6000
6000
E000
ENDCHAR
STARTCHAR Q
ENCODING 81
SWIDTH 583 0
DWIDTH 12 0
BBX 10 19 1 -4
BITMAP
0700
1D80
3080
30C0
60C0
60C0
C0C0
C0C0
C0C0
8080
8180
C180
C300
6300
0600
FE00
CE00
FB00
60C0
ENDCHAR
STARTCHAR R
ENCODING 82
SWIDTH 560 0
DWIDTH 11 0
BBX 13 20 -1 -5
BITMAP
03C0
0E70
3C30
3410
0C18
0C30
0830
0830
1860
3CC0
3F80
1F00
3100
3100
3100
3180
6180
E180
01E0
00C0
ENDCHAR
STARTCHAR S
ENCODING 83
SWIDTH 474 0
DWIDTH 10 0
BBX 11 19 -1 -4
BITMAP
0380
0E60
1860
1860
3060
30C0
1800
1C00
0E00
0600
0300
0300
0300
2100
C100
C300
C200
7C00
3800
ENDCHAR
STARTCHAR T
ENCODING 84
SWIDTH 423 0
DWIDTH 8 0
BBX 10 19 1 -4
BITMAP
0400
FFC0
8C00
0800
1800
1800
1800
1000
3000
3000
3000
2000
6000
6000
6000
6000
6000
C000
8000
ENDCHAR
STARTCHAR U
ENCODING 85
SWIDTH 574 0
DWIDTH 11 0
BBX 12 19 0 -4
BITMAP
0010
1C30
1830
1860
3060
3060
30C0
60C0
60C0
60C0
6080
4180
C180
C180
C380
C380
C780
7D80
3000
ENDCHAR
STARTCHAR V
ENCODING 86
SWIDTH 503 0
DWIDTH 10 0
BBX 10 19 1 -4
BITMAP
1040
60C0
60C0
6180
4180
C100
C300
C300
C200
C600
C600
C400
CC00
CC00
C800
D800
5000
7000
2000
ENDCHAR
STARTCHAR W
ENCODING 87
SWIDTH 817 0
DWIDTH 16 0
BBX 16 19 0 -4
BITMAP
0C03
1843
18C3
30C3
30C3
31C3
6183
6182
6186
4186
4186
4304
430C
C70C
4508
4598
69B0
78E0
30C0
ENDCHAR
STARTCHAR X
ENCODING 88
SWIDTH 579 0
DWIDTH 12 0
BBX 15 19 -1 -4
BITMAP
1804
3C1E
2618
2630
3660
3A40
12C0
0380
0300
0300
0700
0700
0F00
1B00
1900
3100
6188
E1F0
00C0
ENDCHAR
STARTCHAR Y
ENCODING 89
SWIDTH 532 0
DWIDTH 11 0
BBX 11 19 0 -4
BITMAP
0820
1860
3060
3060
30C0
20C0
60C0
6080
6180
4180
4380
6700
7D00
1100
0300
0200
C600
FC00
3000
ENDCHAR
STARTCHAR Z
ENCODING 90
SWIDTH 455 0
DWIDTH 9 0
BBX 12 19 -2 -4
BITMAP
01C0
0FF0
0830
0030
0060
00C0
00C0
0180
0300
0600
0C00
0C00
1800
3000
2000
6000
5FC0
FF80
4000
ENDCHAR
STARTCHAR bracketleft
ENCODING 91
SWIDTH 202 0
DWIDTH 4 0
BBX 7 19 -1 -2
BITMAP
06
0E
08
08
18
10
10
30
30
20
20
60
60
40
40
40
C0
C0
E0
ENDCHAR
STARTCHAR backslash
ENCODING 92
SWIDTH 273 0
DWIDTH 5 0
BBX 4 15 1 0
BITMAP
80
80
C0
C0
C0
C0
40
40
40
40
60
60
20
20
30
ENDCHAR
STARTCHAR bracketright
ENCODING 93
SWIDTH 216 0
DWIDTH 4 0
BBX 7 19 -2 -2
BITMAP
06
0E
06
06
04
04
04
0C
08
08
08
18
10
10
10
30
20
20
E0
ENDCHAR
STARTCHAR asciicircum
ENCODING 94
SWIDTH 287 0
DWIDTH 6 0
BBX 6 7 0 7
BITMAP
1C
3C
2C
64
44
C4
84
ENDCHAR
STARTCHAR underscore
ENCODING 95
SWIDTH 439 0
DWIDTH 9 0
BBX 10 1 -2 0
BITMAP
FFC0
ENDCHAR
STARTCHAR grave
ENCODING 96
SWIDTH 567 0
DWIDTH 11 0
BBX 4 3 5 11
BITMAP
80
E0
30
ENDCHAR
STARTCHAR a
ENCODING 97
SWIDTH 435 0
DWIDTH 9 0
BBX 10 8 0 0
BITMAP
1C00
2C00
6400
C440
CC40
8C80
DD00
E600
ENDCHAR
STARTCHAR b
ENCODING 98
SWIDTH 415 0
DWIDTH 8 0
BBX 10 14 0 0
BITMAP
1800
1800
3800
3000
3000
7000
6000
6C40
4F80
C400
C400
CC00
C800
7000
ENDCHAR
STARTCHAR c
ENCODING 99
SWIDTH 363 0
DWIDTH 7 0
BBX 9 9 0 -1
BITMAP
3800
6C00
C800
C080
8100
8200
C400
7800
2000
ENDCHAR
STARTCHAR d
ENCODING 100
SWIDTH 483 0
DWIDTH 10 0
BBX 11 14 0 0
BITMAP
0080
0180
0180
0180
0380
0380
1B00
6700
4600
C620
8420
8C40
9480
E700
ENDCHAR
STARTCHAR e
ENCODING 101
SWIDTH 372 0
DWIDTH 7 0
BBX 9 8 0 0
BITMAP
1C00
6C00
4800
D080
E100
C300
C600
7800
ENDCHAR
STARTCHAR f
ENCODING 102
SWIDTH 325 0
DWIDTH 7 0
BBX 11 23 -2 -9
BITMAP
0600
0600
0600
0400
0400
0C00
0C00
0800
0BE0
1C00
3000
3000
3800
2C00
2400
6600
6600
4600
4600
4C00
CC00
F800
F000
ENDCHAR
STARTCHAR g
ENCODING 103
SWIDTH 459 0
DWIDTH 9 0
BBX 11 18 0 -10
BITMAP
3900
6600
4600
C620
C640
8480
CD00
7600
0C00
1800
6800
C800
9800
9800
9000
B000
F000
6000
ENDCHAR
STARTCHAR h
ENCODING 104
SWIDTH 465 0
DWIDTH 9 0
BBX 11 14 0 0
BITMAP
3800
1800
3000
3000
3000
2000
2600
7E00
6600
6620
4440
C480
CD00
8E00
ENDCHAR
STARTCHAR i
ENCODING 105
SWIDTH 274 0
DWIDTH 5 0
BBX 7 13 0 0
BITMAP
10
30
00
00
00
20
60
60
42
C4
CC
D8
70
ENDCHAR
STARTCHAR j
ENCODING 106
SWIDTH 267 0
DWIDTH 5 0
BBX 11 22 -4 -9
BITMAP
0180
0100
0000
0000
0000
0200
0600
0600
0620
0440
0C80
0D00
0E00
0C00
1800
3800
5800
D000
9000
B000
A000
6000
ENDCHAR
STARTCHAR k
ENCODING 107
SWIDTH 440 0
DWIDTH 9 0
BBX 10 15 0 -1
BITMAP
3000
3000
3000
3000
3000
2000
6E00
5E00
6600
4C40
7C40
8C80
8900
8E00
0400
ENDCHAR
STARTCHAR l
ENCODING 108
SWIDTH 218 0
DWIDTH 4 0
BBX 4 14 0 0
BITMAP
10
30
30
30
30
20
60
60
60
40
C0
C0
C0
80
ENDCHAR
STARTCHAR m
ENCODING 109
SWIDTH 717 0
DWIDTH 14 0
BBX 16 8 0 0
BITMAP
0620
6EF0
73B0
6331
6622
C662
C464
CC78
ENDCHAR
STARTCHAR n
ENCODING 110
SWIDTH 461 0
DWIDTH 9 0
BBX 11 8 0 0
BITMAP
2400
7E00
6600
6620
4440
C4C0
CC80
8F00
ENDCHAR
STARTCHAR o
ENCODING 111
SWIDTH 393 0
DWIDTH 8 0
BBX 10 8 0 0
BITMAP
3800
6C00
44C0
E500
BE00
8C00
8800
F000
ENDCHAR
STARTCHAR p
ENCODING 112
SWIDTH 451 0
DWIDTH 9 0
BBX 12 16 -2 -8
BITMAP
1900
1F80
1C80
1890
1190
3120
3F40
3F80
2800
6000
6000
6000
4000
C000
C000
C000
ENDCHAR
STARTCHAR q
ENCODING 113
SWIDTH 462 0
DWIDTH 9 0
BBX 10 17 0 -9
BITMAP
1B00
2700
4600
C600
C600
C440
CC80
F480
2D00
0A00
0C00
0800
1800
1800
3800
1800
1800
ENDCHAR
STARTCHAR r
ENCODING 114
SWIDTH 406 0
DWIDTH 8 0
BBX 12 10 -2 -1
BITMAP
0C00
1C00
1E00
1B00
1310
2220
2640
44C0
C780
0200
ENDCHAR
STARTCHAR s
ENCODING 115
SWIDTH 351 0
DWIDTH 7 0
BBX 6 10 0 -1
BITMAP
18
30
30
50
58
98
0C
48
78
20
ENDCHAR
STARTCHAR t
ENCODING 116
SWIDTH 301 0
DWIDTH 6 0
BBX 9 14 -1 0
BITMAP
0C00
0C00
1C00
FF80
1800
1800
1800
3000
3000
2080
2100
2200
2400
3800
ENDCHAR
STARTCHAR u
ENCODING 117
SWIDTH 468 0
DWIDTH 9 0
BBX 11 8 0 0
BITMAP
2200
6600
4600
C620
C440
C440
CC80
F700
ENDCHAR
STARTCHAR v
ENCODING 118
SWIDTH 427 0
DWIDTH 9 0
BBX 11 8 0 0
BITMAP
4200
C600
C620
C4C0
CF00
C800
D000
6000
ENDCHAR
STARTCHAR w
ENCODING 119
SWIDTH 646 0
DWIDTH 13 0
BBX 15 8 0 0
BITMAP
2620
6660
4662
C46C
C470
CCC0
CC80
7700
ENDCHAR
STARTCHAR x
ENCODING 120
SWIDTH 399 0
DWIDTH 8 0
BBX 10 8 -1 0
BITMAP
6300
3700
1600
1C00
1800
3840
6980
CF00
ENDCHAR
STARTCHAR y
ENCODING 121
SWIDTH 406 0
DWIDTH 8 0
BBX 7 16 0 -8
BITMAP
42
66
46
C6
CC
8C
9C
FC
48
08
18
18
10
10
30
30
ENDCHAR
STARTCHAR z
ENCODING 122
SWIDTH 448 0
DWIDTH 9 0
BBX 11 17 -1 -9
BITMAP
0F80
1D00
0100
0300
0620
0C20
1F40
0980
0700
1B00
3200
6600
4400
CC00
C800
7800
6000
ENDCHAR
STARTCHAR braceleft
ENCODING 123
SWIDTH 243 0
DWIDTH 5 0
BBX 7 19 0 -2
BITMAP
06
0C
18
10
10
10
10
30
20
40
60
20
60
40
C0
80
80
E0
C0
ENDCHAR
STARTCHAR bar
ENCODING 124
SWIDTH 253 0
DWIDTH 5 0
BBX 5 15 0 0
BITMAP
08
18
10
10
30
30
20
20
20
60
60
40
40
C0
C0
ENDCHAR
STARTCHAR braceright
ENCODING 125
SWIDTH 243 0
DWIDTH 5 0
BBX 7 19 -2 -2
BITMAP
08
0C
06
06
06
04
0C
08
08
0C
0C
18
10
10
10
10
30
70
E0
ENDCHAR
STARTCHAR asciitilde
ENCODING 126
SWIDTH 329 0
DWIDTH 7 0
BBX 8 2 -1 6
BITMAP
7B
CE
ENDCHAR
STARTCHAR uni00A0
ENCODING 160
SWIDTH 280 0
DWIDTH 6 0
BBX 1 1 0 0
BITMAP
00
ENDCHAR
STARTCHAR exclamdown
ENCODING 161
SWIDTH 249 0
DWIDTH 5 0
BBX 5 15 0 0
BITMAP
08
18
00
10
10
30
30
20
60
60
60
60
C0
C0
C0
ENDCHAR
STARTCHAR cent
ENCODING 162
SWIDTH 322 0
DWIDTH 6 0
BBX 7 14 0 0
BITMAP
0C
0C
34
26
4E
CC
C0
80
80
80
C8
70
20
40
ENDCHAR
STARTCHAR sterling
ENCODING 163
SWIDTH 318 0
DWIDTH 6 0
BBX 8 13 -1 1
BITMAP
06
09
11
13
16
30
24
78
20
60
40
FC
FC
ENDCHAR
STARTCHAR currency
ENCODING 164
SWIDTH 347 0
DWIDTH 7 0
BBX 7 7 0 4
BITMAP
42
7E
24
24
48
78
84
ENDCHAR
STARTCHAR yen
ENCODING 165
SWIDTH 326 0
DWIDTH 7 0
BBX 8 12 0 1
BITMAP
63
62
26
24
28
10
30
F8
78
A8
60
40
ENDCHAR
STARTCHAR brokenbar
ENCODING 166
SWIDTH 253 0
DWIDTH 5 0
BBX 5 15 0 0
BITMAP
08
18
10
10
30
30
20
00
00
60
60
40
40
C0
C0
ENDCHAR
STARTCHAR section
ENCODING 167
SWIDTH 297 0
DWIDTH 6 0
BBX 8 15 -1 0
BITMAP
06
19
33
32
10
08
34
66
66
6C
30
08
6C
CC
78
ENDCHAR
STARTCHAR dieresis
ENCODING 168
SWIDTH 567 0
DWIDTH 11 0
BBX 6 1 4 12
BITMAP
DC
ENDCHAR
STARTCHAR copyright
ENCODING 169
SWIDTH 456 0
DWIDTH 9 0
BBX 10 11 0 4
BITMAP
0600
1980
2680
4A40
5A40
D040
D2C0
5680
4980
3200
0C00
ENDCHAR
STARTCHAR ordfeminine
ENCODING 170
SWIDTH 373 0
DWIDTH 7 0
BBX 9 11 -1 -1
BITMAP
0C00
1400
2600
6400
4400
4C80
7D00
6600
0000
FE00
8000
ENDCHAR
STARTCHAR guillemotleft
ENCODING 171
SWIDTH 346 0
DWIDTH 7 0
BBX 8 8 -1 0
BITMAP
09
12
24
48
D8
48
2C
34
ENDCHAR
STARTCHAR logicalnot
ENCODING 172
SWIDTH 512 0
DWIDTH 10 0
BBX 10 5 0 3
BITMAP
FFC0
C0C0
00C0
0080
0180
ENDCHAR
STARTCHAR sfthyphen
ENCODING 173
SWIDTH 353 0
DWIDTH 7 0
BBX 7 2 0 5
BITMAP
FE
80
ENDCHAR
STARTCHAR registered
ENCODING 174
SWIDTH 456 0
DWIDTH 9 0
BBX 10 11 0 4
BITMAP
0600
1980
2E80
4A40
4A40
DC40
D4C0
5480
4380
3200
0C00
ENDCHAR
STARTCHAR macron
ENCODING 175
SWIDTH 567 0
DWIDTH 11 0
BBX 5 1 4 12
BITMAP
F8
ENDCHAR
STARTCHAR degree
ENCODING 176
SWIDTH 144 0
DWIDTH 3 0
BBX 3 2 1 11
BITMAP
E0
E0
ENDCHAR
STARTCHAR twosuperior
ENCODING 178
SWIDTH 268 0
DWIDTH 5 0
BBX 6 10 0 5
BITMAP
1C
24
24
0C
08
10
20
40
F8
48
ENDCHAR
STARTCHAR threesuperior
ENCODING 179
SWIDTH 262 0
DWIDTH 5 0
BBX 6 10 0 5
BITMAP
18
24
74
0C
18
38
08
C8
58
20
ENDCHAR
STARTCHAR acute
ENCODING 180
SWIDTH 567 0
DWIDTH 11 0
BBX 4 3 5 11
BITMAP
20
70
C0
ENDCHAR
STARTCHAR mu
ENCODING 181
SWIDTH 453 0
DWIDTH 9 0
BBX 12 11 -3 -4
BITMAP
0880
1980
1180
1110
3110
3320
3DC0
2000
6000
6000
C000
ENDCHAR
STARTCHAR paragraph
ENCODING 182
SWIDTH 411 0
DWIDTH 8 0
BBX 9 15 1 0
BITMAP
0500
3F80
7F00
FA00
FA00
FA00
F200
7400
1400
1400
3400
2400
2800
6800
7800
ENDCHAR
STARTCHAR periodcentered
ENCODING 183
SWIDTH 168 0
DWIDTH 3 0
BBX 3 2 0 6
BITMAP
60
E0
ENDCHAR
STARTCHAR cedilla
ENCODING 184
SWIDTH 567 0
DWIDTH 11 0
BBX 4 5 5 -3
BITMAP
40
C0
30
20
C0
ENDCHAR
STARTCHAR onesuperior
ENCODING 185
SWIDTH 150 0
DWIDTH 3 0
BBX 3 9 1 6
BITMAP
20
60
40
40
40
C0
80
80
80
ENDCHAR
STARTCHAR ordmasculine
ENCODING 186
SWIDTH 319 0
DWIDTH 6 0
BBX 9 10 -1 -1
BITMAP
3C00
2480
6500
5E00
4400
4800
7000
0000
FC00
8000
ENDCHAR
STARTCHAR guillemotright
ENCODING 187
SWIDTH 346 0
DWIDTH 7 0
BBX 7 8 -1 0
BITMAP
48
68
24
36
36
24
48
B0
ENDCHAR
STARTCHAR onequarter
ENCODING 188
SWIDTH 579 0
DWIDTH 12 0
BBX 12 15 -1 0
BITMAP
0810
1820
1060
10C0
1080
1100
2330
2270
24E0
0DA0
0B20
11E0
3040
6040
E040
ENDCHAR
STARTCHAR onehalf
ENCODING 189
SWIDTH 603 0
DWIDTH 12 0
BBX 13 16 -1 -1
BITMAP
0810
1820
1860
10C0
1080
1100
3370
22D8
24D0
0C10
0820
1060
30C0
2180
61F0
8010
ENDCHAR
STARTCHAR threequarters
ENCODING 190
SWIDTH 669 0
DWIDTH 13 0
BBX 13 15 0 0
BITMAP
1808
2410
7420
0C60
18C0
3880
0918
CB30
5A70
24D0
0DB0
09F0
1820
3020
6020
ENDCHAR
STARTCHAR questiondown
ENCODING 191
SWIDTH 413 0
DWIDTH 8 0
BBX 10 16 -1 -1
BITMAP
01C0
0180
0000
0180
0300
0300
0300
0E00
3800
6000
4000
C200
C300
C300
7E00
1000
ENDCHAR
STARTCHAR Agrave
ENCODING 192
SWIDTH 552 0
DWIDTH 11 0
BBX 12 24 -2 -5
BITMAP
0040
0060
0010
0000
0060
00F0
0110
0330
0230
0620
0420
0C20
0C60
0860
1F60
7FF0
9040
30C0
30C0
70C0
60C0
60C0
80E0
0080
ENDCHAR
STARTCHAR Aacute
ENCODING 193
SWIDTH 552 0
DWIDTH 11 0
BBX 12 24 -2 -5
BITMAP
0010
0030
0060
0000
0060
00F0
0110
0330
0230
0620
0420
0C20
0C60
0860
1F60
7FF0
9040
30C0
30C0
70C0
60C0
60C0
80E0
0080
ENDCHAR
STARTCHAR Acircumflex
ENCODING 194
SWIDTH 552 0
DWIDTH 11 0
BBX 13 23 -2 -5
BITMAP
0030
0070
0088
0060
00F0
0110
0330
0230
0620
0420
0C20
0C60
0860
1F60
7FF0
9040
30C0
30C0
70C0
60C0
60C0
80E0
0080
ENDCHAR
STARTCHAR Atilde
ENCODING 195
SWIDTH 552 0
DWIDTH 11 0
BBX 14 22 -2 -5
BITMAP
00FC
0080
0060
00F0
0110
0330
0230
0620
0420
0C20
0C60
0860
1F60
7FF0
9040
30C0
30C0
70C0
60C0
60C0
80E0
0080
ENDCHAR
STARTCHAR Adieresis
ENCODING 196
SWIDTH 552 0
DWIDTH 11 0
BBX 14 22 -2 -5
BITMAP
00EC
0000
0060
00F0
0110
0330
0230
0620
0420
0C20
0C60
0860
1F60
7FF0
9040
30C0
30C0
70C0
60C0
60C0
80E0
0080
ENDCHAR
STARTCHAR Aring
ENCODING 197
SWIDTH 552 0
DWIDTH 11 0
BBX 12 22 -2 -5
BITMAP
0030
0050
0060
00F0
0110
0330
0230
0620
0420
0C20
0C60
0860
1F60
7FF0
9040
30C0
30C0
70C0
60C0
60C0
80E0
0080
ENDCHAR
STARTCHAR AE
ENCODING 198
SWIDTH 869 0
DWIDTH 17 0
BBX 20 20 -2 -5
BITMAP
0061C0
00F720
011C30
033830
023860
0638E0
043800
0C3800
0C7800
086F00
1F7800
7FE000
906000
30C040
30C040
70E080
60E180
60FF00
80EC00
008000
ENDCHAR
STARTCHAR Ccedilla
ENCODING 199
SWIDTH 548 0
DWIDTH 11 0
BBX 11 23 0 -8
BITMAP
0180
0660
0C60
1860
3060
30E0
60C0
6000
6000
E000
C000
C000
C000
C000
C080
C180
6300
3E00
1800
1000
0C00
0C00
3000
ENDCHAR
STARTCHAR Egrave
ENCODING 200
SWIDTH 523 0
DWIDTH 10 0
BBX 12 23 -1 -4
BITMAP
0100
01C0
0060
0000
01C0
0720
0C30
1830
1820
18E0
3800
1800
1C00
0F00
1800
6000
6000
6040
E040
E080
6180
3F00
0C00
ENDCHAR
STARTCHAR Eacute
ENCODING 201
SWIDTH 523 0
DWIDTH 10 0
BBX 12 23 -1 -4
BITMAP
0020
0060
0080
0000
01C0
0720
0C30
1830
1820
18E0
3800
1800
1C00
0F00
1800
6000
6000
6040
E040
E080
6180
3F00
0C00
ENDCHAR
STARTCHAR Ecircumflex
ENCODING 202
SWIDTH 523 0
DWIDTH 10 0
BBX 12 23 -1 -4
BITMAP
0060
00A0
0310
0000
01C0
0720
0C30
1830
1820
18E0
3800
1800
1C00
0F00
1800
6000
6000
6040
E040
E080
6180
3F00
0C00
ENDCHAR
STARTCHAR Edieresis
ENCODING 203
SWIDTH 523 0
DWIDTH 10 0
BBX 12 21 -1 -4
BITMAP
01B0
0000
01C0
0720
0C30
1830
1820
18E0
3800
1800
1C00
0F00
1800
6000
6000
6040
E040
E080
6180
3F00
0C00
ENDCHAR
STARTCHAR Igrave
ENCODING 204
SWIDTH 537 0
DWIDTH 11 0
BBX 13 23 -2 -4
BITMAP
0040
0060
0010
0000
0020
00F0
01B0
0330
0330
0320
0320
0360
0360
0160
00C0
0FF8
38C0
6080
E180
6100
6300
3600
0C00
ENDCHAR
STARTCHAR Iacute
ENCODING 205
SWIDTH 537 0
DWIDTH 11 0
BBX 13 23 -2 -4
BITMAP
0010
0038
0060
0000
0020
00F0
01B0
0330
0330
0320
0320
0360
0360
0160
00C0
0FF8
38C0
6080
E180
6100
6300
3600
0C00
ENDCHAR
STARTCHAR Icircumflex
ENCODING 206
SWIDTH 537 0
DWIDTH 11 0
BBX 14 22 -2 -4
BITMAP
0018
0028
00CC
0020
00F0
01B0
0330
0330
0320
0320
0360
0360
0160
00C0
0FF8
38C0
6080
E180
6100
6300
3600
0C00
ENDCHAR
STARTCHAR Idieresis
ENCODING 207
SWIDTH 537 0
DWIDTH 11 0
BBX 14 21 -2 -4
BITMAP
00EC
0000
0020
00F0
01B0
0330
0330
0320
0320
0360
0360
0160
00C0
0FF8
38C0
6080
E180
6100
6300
3600
0C00
ENDCHAR
STARTCHAR Eth
ENCODING 208
SWIDTH 632 0
DWIDTH 13 0
BBX 13 19 -1 -4
BITMAP
0700
1FE0
1870
0430
0C18
0C18
0C18
0C18
0818
7F18
9830
1830
1030
3060
30C0
30C0
6380
7E00
1800
ENDCHAR
STARTCHAR Ntilde
ENCODING 209
SWIDTH 541 0
DWIDTH 11 0
BBX 14 21 -1 -4
BITMAP
03F0
0200
0018
0C3C
1C24
1C68
1468
1450
34E0
34C0
24C0
24C0
64C0
6480
6480
6780
4780
C780
C300
E300
4200
ENDCHAR
STARTCHAR Ograve
ENCODING 210
SWIDTH 567 0
DWIDTH 11 0
BBX 10 23 0 -4
BITMAP
0200
0380
00C0
0000
0780
0FC0
1AC0
18C0
3040
3040
6040
6040
60C0
40C0
C0C0
C0C0
C080
C180
C180
C300
4200
6C00
3800
ENDCHAR
STARTCHAR Oacute
ENCODING 211
SWIDTH 567 0
DWIDTH 11 0
BBX 10 23 0 -4
BITMAP
0080
01C0
0300
0000
0780
0FC0
1AC0
18C0
3040
3040
6040
6040
60C0
40C0
C0C0
C0C0
C080
C180
C180
C300
4200
6C00
3800
ENDCHAR
STARTCHAR Ocircumflex
ENCODING 212
SWIDTH 567 0
DWIDTH 11 0
BBX 10 23 0 -4
BITMAP
0180
03C0
0440
0000
0780
0FC0
1AC0
18C0
3040
3040
6040
6040
60C0
40C0
C0C0
C0C0
C080
C180
C180
C300
4200
6C00
3800
ENDCHAR
STARTCHAR Otilde
ENCODING 213
SWIDTH 567 0
DWIDTH 11 0
BBX 11 21 0 -4
BITMAP
07E0
0400
0780
0FC0
1AC0
18C0
3040
3040
6040
6040
60C0
40C0
C0C0
C0C0
C080
C180
C180
C300
4200
6C00
3800
ENDCHAR
STARTCHAR Odieresis
ENCODING 214
SWIDTH 567 0
DWIDTH 11 0
BBX 11 21 0 -4
BITMAP
06E0
0000
0780
0FC0
1AC0
18C0
3040
3040
6040
6040
60C0
40C0
C0C0
C0C0
C080
C180
C180
C300
4200
6C00
3800
ENDCHAR
STARTCHAR multiply
ENCODING 215
SWIDTH 281 0
DWIDTH 6 0
BBX 8 7 -1 3
BITMAP
37
34
18
10
38
48
C8
ENDCHAR
STARTCHAR Oslash
ENCODING 216
SWIDTH 597 0
DWIDTH 12 0
BBX 13 19 -1 -4
BITMAP
01D8
07F0
0620
0C60
18E0
18F0
11B0
31B0
3330
3220
3660
2460
6C60
78C0
38C0
3080
3180
7300
EC00
ENDCHAR
STARTCHAR Ugrave
ENCODING 217
SWIDTH 574 0
DWIDTH 11 0
BBX 12 22 0 -4
BITMAP
0200
0380
00C0
0010
1C30
1830
1860
3060
3060
30C0
60C0
60C0
60C0
6080
4180
C180
C180
C380
C380
C780
7D80
3000
ENDCHAR
STARTCHAR Uacute
ENCODING 218
SWIDTH 574 0
DWIDTH 11 0
BBX 12 22 0 -4
BITMAP
0040
00E0
0180
0010
1C30
1830
1860
3060
3060
30C0
60C0
60C0
60C0
6080
4180
C180
C180
C380
C380
C780
7D80
3000
ENDCHAR
STARTCHAR Ucircumflex
ENCODING 219
SWIDTH 574 0
DWIDTH 11 0
BBX 12 22 0 -4
BITMAP
00C0
0140
0620
0010
1C30
1830
1860
3060
3060
30C0
60C0
60C0
60C0
6080
4180
C180
C180
C380
C380
C780
7D80
3000
ENDCHAR
STARTCHAR Udieresis
ENCODING 220
SWIDTH 574 0
DWIDTH 11 0
BBX 12 21 0 -4
BITMAP
0360
0000
0010
1C30
1830
1860
3060
3060
30C0
60C0
60C0
60C0
6080
4180
C180
C180
C380
C380
C780
7D80
3000
ENDCHAR
STARTCHAR Yacute
ENCODING 221
SWIDTH 532 0
DWIDTH 11 0
BBX 11 22 0 -4
BITMAP
0040
00C0
0300
0820
1860
3060
3060
30C0
20C0
60C0
6080
6180
4180
4380
6700
7D00
1100
0300
0200
C600
FC00
3000
ENDCHAR
STARTCHAR Thorn
ENCODING 222
SWIDTH 569 0
DWIDTH 11 0
BBX 12 19 -1 -4
BITMAP
0200
0C00
0C00
0C00
1FC0
3860
7830
3030
3030
3030
3060
3060
20C0
6380
7E00
6000
6000
C000
8000
ENDCHAR
STARTCHAR germandbls
ENCODING 223
SWIDTH 495 0
DWIDTH 10 0
BBX 11 22 -2 -9
BITMAP
03C0
0640
0CC0
0CC0
0880
1900
1900
1180
10C0
B040
6060
3360
6BC0
6D80
4400
4400
C400
CC00
8C00
9800
F000
E000
ENDCHAR
STARTCHAR agrave
ENCODING 224
SWIDTH 435 0
DWIDTH 9 0
BBX 10 12 0 0
BITMAP
1000
1800
0400
0000
1C00
2C00
6400
C440
CC40
8C80
DD00
E600
ENDCHAR
STARTCHAR aacute
ENCODING 225
SWIDTH 435 0
DWIDTH 9 0
BBX 10 12 0 0
BITMAP
0400
0C00
1800
0000
1C00
2C00
6400
C440
CC40
8C80
DD00
E600
ENDCHAR
STARTCHAR acircumflex
ENCODING 226
SWIDTH 435 0
DWIDTH 9 0
BBX 10 12 0 0
BITMAP
0C00
1C00
2200
0000
1C00
2C00
6400
C440
CC40
8C80
DD00
E600
ENDCHAR
STARTCHAR atilde
ENCODING 227
SWIDTH 435 0
DWIDTH 9 0
BBX 10 11 0 0
BITMAP
3F00
2000
0000
1C00
2C00
6400
C440
CC40
8C80
DD00
E600
ENDCHAR
STARTCHAR adieresis
ENCODING 228
SWIDTH 435 0
DWIDTH 9 0
BBX 10 11 0 0
BITMAP
3B00
0000
0000
1C00
2C00
6400
C440
CC40
8C80
DD00
E600
ENDCHAR
STARTCHAR aring
ENCODING 229
SWIDTH 435 0
DWIDTH 9 0
BBX 10 11 0 0
BITMAP
1C00
1800
0000
1C00
2C00
6400
C440
CC40
8C80
DD00
E600
ENDCHAR
STARTCHAR ae
ENCODING 230
SWIDTH 594 0
DWIDTH 12 0
BBX 13 8 0 0
BITMAP
1DC0
2E40
66C0
C588
CE08
8C10
DC20
E7C0
ENDCHAR
STARTCHAR ccedilla
ENCODING 231
SWIDTH 363 0
DWIDTH 7 0
BBX 9 13 0 -5
BITMAP
3800
6C00
C800
C080
8100
8200
C400
7800
2000
6000
1000
3000
4000
ENDCHAR
STARTCHAR egrave
ENCODING 232
SWIDTH 372 0
DWIDTH 7 0
BBX 9 12 0 0
BITMAP
1000
3800
0C00
0000
1C00
6C00
4800
D080
E100
C300
C600
7800
ENDCHAR
STARTCHAR eacute
ENCODING 233
SWIDTH 372 0
DWIDTH 7 0
BBX 9 12 0 0
BITMAP
0400
0C00
1800
0000
1C00
6C00
4800
D080
E100
C300
C600
7800
ENDCHAR
STARTCHAR ecircumflex
ENCODING 234
SWIDTH 372 0
DWIDTH 7 0
BBX 9 12 0 0
BITMAP
0C00
1400
6200
0000
1C00
6C00
4800
D080
E100
C300
C600
7800
ENDCHAR
STARTCHAR edieresis
ENCODING 235
SWIDTH 372 0
DWIDTH 7 0
BBX 9 11 0 0
BITMAP
3600
0000
0000
1C00
6C00
4800
D080
E100
C300
C600
7800
ENDCHAR
STARTCHAR igrave
ENCODING 236
SWIDTH 274 0
DWIDTH 5 0
BBX 7 12 0 0
BITMAP
40
E0
30
00
20
60
60
42
C4
CC
D8
70
ENDCHAR
STARTCHAR iacute
ENCODING 237
SWIDTH 274 0
DWIDTH 5 0
BBX 7 12 0 0
BITMAP
04
0C
30
00
20
60
60
42
C4
CC
D8
70
ENDCHAR
STARTCHAR icircumflex
ENCODING 238
SWIDTH 274 0
DWIDTH 5 0
BBX 7 12 0 0
BITMAP
10
78
CC
00
20
60
60
42
C4
CC
D8
70
ENDCHAR
STARTCHAR idieresis
ENCODING 239
SWIDTH 274 0
DWIDTH 5 0
BBX 7 11 0 0
BITMAP
EC
00
00
20
60
60
42
C4
CC
D8
70
ENDCHAR
STARTCHAR eth
ENCODING 240
SWIDTH 393 0
DWIDTH 8 0
BBX 10 13 0 0
BITMAP
0800
0400
0F00
3C00
0400
3C00
6C00
44C0
E500
BE00
8C00
8800
F000
ENDCHAR
STARTCHAR ntilde
ENCODING 241
SWIDTH 461 0
DWIDTH 9 0
BBX 11 11 0 0
BITMAP
3F00
2000
0000
2400
7E00
6600
6620
4440
C4C0
CC80
8F00
ENDCHAR
STARTCHAR ograve
ENCODING 242
SWIDTH 393 0
DWIDTH 8 0
BBX 10 12 0 0
BITMAP
1000
3800
0C00
0000
3800
6C00
44C0
E500
BE00
8C00
8800
F000
ENDCHAR
STARTCHAR oacute
ENCODING 243
SWIDTH 393 0
DWIDTH 8 0
BBX 10 12 0 0
BITMAP
0400
0C00
1800
0000
3800
6C00
44C0
E500
BE00
8C00
8800
F000
ENDCHAR
STARTCHAR ocircumflex
ENCODING 244
SWIDTH 393 0
DWIDTH 8 0
BBX 10 12 0 0
BITMAP
1800
3C00
4600
0000
3800
6C00
44C0
E500
BE00
8C00
8800
F000
ENDCHAR
STARTCHAR otilde
ENCODING 245
SWIDTH 393 0
DWIDTH 8 0
BBX 10 11 0 0
BITMAP
7E00
4000
0000
3800
6C00
44C0
E500
BE00
8C00
8800
F000
ENDCHAR
STARTCHAR odieresis
ENCODING 246
SWIDTH 393 0
DWIDTH 8 0
BBX 10 11 0 0
BITMAP
3600
0000
0000
3800
6C00
44C0
E500
BE00
8C00
8800
F000
ENDCHAR
STARTCHAR divide
ENCODING 247
SWIDTH 350 0
DWIDTH 7 0
BBX 7 6 0 4
BITMAP
18
00
FE
C0
00
30
ENDCHAR
STARTCHAR oslash
ENCODING 248
SWIDTH 406 0
DWIDTH 8 0
BBX 11 10 -1 -1
BITMAP
0100
1F00
3200
3220
72C0
7F00
4600
6400
7C00
C000
ENDCHAR
STARTCHAR ugrave
ENCODING 249
SWIDTH 468 0
DWIDTH 9 0
BBX 11 12 0 0
BITMAP
1000
1800
0400
0000
2200
6600
4600
C620
C440
C440
CC80
F700
ENDCHAR
STARTCHAR uacute
ENCODING 250
SWIDTH 468 0
DWIDTH 9 0
BBX 11 12 0 0
BITMAP
0200
0E00
1800
0000
2200
6600
4600
C620
C440
C440
CC80
F700
ENDCHAR
STARTCHAR ucircumflex
ENCODING 251
SWIDTH 468 0
DWIDTH 9 0
BBX 11 12 0 0
BITMAP
0C00
1E00
2300
0000
2200
6600
4600
C620
C440
C440
CC80
F700
ENDCHAR
STARTCHAR udieresis
ENCODING 252
SWIDTH 468 0
DWIDTH 9 0
BBX 11 11 0 0
BITMAP
3F00
0000
0000
2200
6600
4600
C620
C440
C440
CC80
F700
ENDCHAR
STARTCHAR yacute
ENCODING 253
SWIDTH 406 0
DWIDTH 8 0
BBX 7 20 0 -8
BITMAP
02
06
08
00
42
66
46
C6
CC
8C
9C
FC
48
08
18
18
10
10
30
30
ENDCHAR
STARTCHAR thorn
ENCODING 254
SWIDTH 451 0
DWIDTH 9 0
BBX 12 22 -2 -8
BITMAP
0600
0600
0400
0C00
0C00
0800
0900
1F80
1C80
1890
1190
3120
3F40
3F80
2800
6000
6000
6000
4000
C000
C000
C000
ENDCHAR
STARTCHAR ydieresis
ENCODING 255
SWIDTH 406 0
DWIDTH 8 0
BBX 7 19 0 -8
BITMAP
36
00
00
42
66
46
C6
CC
8C
9C
FC
48
08
18
18
10
10
30
30
ENDCHAR
STARTCHAR dotlessi
ENCODING 305
SWIDTH 274 0
DWIDTH 5 0
BBX 7 8 0 0
BITMAP
20
60
60
42
C4
CC
D8
70
ENDCHAR
STARTCHAR Lslash
ENCODING 321
SWIDTH 492 0
DWIDTH 10 0
BBX 13 19 -2 -4
BITMAP
0030
0078
00D8
0090
01B0
01E0
01C0
1F80
0300
0300
07C0
1E00
1600
0600
0400
7C00
DC20
F7E0
01C0
ENDCHAR
STARTCHAR lslash
ENCODING 322
SWIDTH 218 0
DWIDTH 4 0
BBX 7 14 -1 0
BITMAP
08
18
18
18
18
12
7C
F0
30
20
60
60
60
40
ENDCHAR
STARTCHAR OE
ENCODING 338
SWIDTH 918 0
DWIDTH 18 0
BBX 19 19 0 -4
BITMAP
078380
0FCE40
1AD860
18F060
3070C0
3071C0
607000
607000
60F000
40DE00
C0F000
C0C000
C0C000
C18080
C18080
C3C100
42C300
6C7E00
381800
ENDCHAR
STARTCHAR oe
ENCODING 339
SWIDTH 583 0
DWIDTH 12 0
BBX 13 8 0 0
BITMAP
39C0
6E40
46C0
E588
BF08
8C10
8C20
F7C0
ENDCHAR
STARTCHAR Scaron
ENCODING 352
SWIDTH 474 0
DWIDTH 10 0
BBX 12 23 -1 -4
BITMAP
0110
00A0
00C0
0000
0380
0E60
1860
1860
3060
30C0
1800
1C00
0E00
0600
0300
0300
0300
2100
C100
C300
C200
7C00
3800
ENDCHAR
STARTCHAR scaron
ENCODING 353
SWIDTH 351 0
DWIDTH 7 0
BBX 7 14 0 -1
BITMAP
22
1C
18
00
18
30
30
50
58
98
0C
48
78
20
ENDCHAR
STARTCHAR Ydieresis
ENCODING 376
SWIDTH 532 0
DWIDTH 11 0
BBX 11 21 0 -4
BITMAP
06E0
0000
0820
1860
3060
3060
30C0
20C0
60C0
6080
6180
4180
4380
6700
7D00
1100
0300
0200
C600
FC00
3000
ENDCHAR
STARTCHAR Zcaron
ENCODING 381
SWIDTH 455 0
DWIDTH 9 0
BBX 13 22 -2 -4
BITMAP
0198
00A0
00C0
01C0
0FF0
0830
0030
0060
00C0
00C0
0180
0300
0600
0C00
0C00
1800
3000
2000
6000
5FC0
FF80
4000
ENDCHAR
STARTCHAR zcaron
ENCODING 382
SWIDTH 349 0
DWIDTH 7 0
BBX 11 21 -3 -9
BITMAP
0460
0280
0300
0000
0F80
1D80
0100
0300
0620
0C20
1F40
0980
0700
1B00
3200
6600
4400
CC00
C800
7800
6000
ENDCHAR
STARTCHAR circumflex
ENCODING 710
SWIDTH 567 0
DWIDTH 11 0
BBX 6 3 4 11
BITMAP
10
78
CC
ENDCHAR
STARTCHAR caron
ENCODING 711
SWIDTH 567 0
DWIDTH 11 0
BBX 6 3 4 11
BITMAP
CC
50
60
ENDCHAR
STARTCHAR breve
ENCODING 728
SWIDTH 567 0
DWIDTH 11 0
BBX 5 2 4 11
BITMAP
C8
70
ENDCHAR
STARTCHAR dotaccent
ENCODING 729
SWIDTH 567 0
DWIDTH 11 0
BBX 2 1 6 12
BITMAP
C0
ENDCHAR
STARTCHAR ring
ENCODING 730
SWIDTH 567 0
DWIDTH 11 0
BBX 2 2 6 11
BITMAP
C0
C0
ENDCHAR
STARTCHAR ogonek
ENCODING 731
SWIDTH 567 0
DWIDTH 11 0
BBX 5 3 4 -2
BITMAP
40
C8
70
ENDCHAR
STARTCHAR tilde
ENCODING 732
SWIDTH 567 0
DWIDTH 11 0
BBX 6 2 4 11
BITMAP
FC
80
ENDCHAR
STARTCHAR hungarumlaut
ENCODING 733
SWIDTH 567 0
DWIDTH 11 0
BBX 6 3 4 11
BITMAP
24
6C
98
ENDCHAR
STARTCHAR endash
ENCODING 8211
SWIDTH 353 0
DWIDTH 7 0
BBX 7 2 0 5
BITMAP
FE
80
ENDCHAR
STARTCHAR emdash
ENCODING 8212
SWIDTH 508 0
DWIDTH 10 0
BBX 10 2 0 5
BITMAP
FFC0
C080
ENDCHAR
STARTCHAR quoteleft
ENCODING 8216
SWIDTH 155 0
DWIDTH 3 0
BBX 2 5 1 9
BITMAP
40
40
80
C0
C0
ENDCHAR
STARTCHAR quoteright
ENCODING 8217
SWIDTH 154 0
DWIDTH 3 0
BBX 3 5 1 9
BITMAP
40
E0
C0
40
80
ENDCHAR
STARTCHAR quotesinglbase
ENCODING 8218
SWIDTH 188 0
DWIDTH 4 0
BBX 3 4 -1 -2
BITMAP
60
E0
40
C0
ENDCHAR
STARTCHAR quotedblleft
ENCODING 8220
SWIDTH 289 0
DWIDTH 6 0
BBX 5 5 1 9
BITMAP
48
50
90
D8
D0
ENDCHAR
STARTCHAR quotedblright
ENCODING 8221
SWIDTH 288 0
DWIDTH 6 0
BBX 5 5 1 9
BITMAP
48
F8
58
48
90
ENDCHAR
STARTCHAR quotedblbase
ENCODING 8222
SWIDTH 323 0
DWIDTH 6 0
BBX 5 4 -1 -2
BITMAP
78
F8
48
D0
ENDCHAR
STARTCHAR bullet
ENCODING 8226
SWIDTH 180 0
DWIDTH 4 0
BBX 3 5 0 3
BITMAP
60
E0
E0
E0
40
ENDCHAR
STARTCHAR ellipsis
ENCODING 8230
SWIDTH 614 0
DWIDTH 12 0
BBX 11 2 -1 0
BITMAP
2220
EEE0
ENDCHAR
STARTCHAR perthousand
ENCODING 8240
SWIDTH 851 0
DWIDTH 17 0
BBX 16 15 0 0
BITMAP
1030
3C60
6440
4480
4D80
4900
7A00
0600
0C86
094D
1A69
3279
2651
6253
C39E
ENDCHAR
STARTCHAR guilsinglleft
ENCODING 8249
SWIDTH 202 0
DWIDTH 4 0
BBX 5 8 -1 0
BITMAP
08
10
20
40
C0
40
20
20
ENDCHAR
STARTCHAR guilsinglright
ENCODING 8250
SWIDTH 202 0
DWIDTH 4 0
BBX 4 8 -1 0
BITMAP
40
60
20
30
30
20
40
80
ENDCHAR
STARTCHAR fraction
ENCODING 8260
SWIDTH 600 0
DWIDTH 12 0
BBX 11 15 1 0
BITMAP
0020
0040
00C0
0180
0100
0300
0600
0400
0800
1800
1000
2000
6000
4000
C000
ENDCHAR
STARTCHAR Euro
ENCODING 8364
SWIDTH 334 0
DWIDTH 7 0
BBX 9 12 -1 1
BITMAP
0700
0980
1800
1000
3800
6600
7C00
E000
6000
2200
2400
1800
ENDCHAR
STARTCHAR minus
ENCODING 8722
SWIDTH 353 0
DWIDTH 7 0
BBX 7 2 0 5
BITMAP
FE
80
ENDCHAR
STARTCHAR fi
ENCODING 64257
SWIDTH 549 0
DWIDTH 11 0
BBX 15 23 -2 -9
BITMAP
0600
0610
0630
0400
0400
0C00
0C60
0860
0BC0
1CC2
30C4
3088
3890
2CE0
2400
6600
6600
4600
4600
4C00
CC00
F800
F000
ENDCHAR
STARTCHAR fl
ENCODING 64258
SWIDTH 516 0
DWIDTH 10 0
BBX 12 23 -2 -9
BITMAP
0610
0630
0630
0430
0430
0C20
0C60
0860
0BE0
1C40
30C0
30C0
38C0
2C80
2400
6600
6600
4600
4600
4C00
CC00
F800
F000
ENDCHAR
STARTCHAR .notdef
ENCODING -1
SWIDTH 280 0
DWIDTH 6 0
BBX 1 1 0 0
BITMAP
00
ENDCHAR
ENDFONT
